# xmcd
#
# Track frame offsets:
#	150
#	8091
#	19262
#	33602
#	46712
#	58065
#	68848
#	81483
#	95845
#	109446
#	123498
#	142980
#	162570
#	180936
#	193389
#	203892
#
# Disc length: 2858
#
# Revision: 1
# Processed by: cddbd v1.5.1PL0 Copyright (c) Steve Scherf et al.
# Submitted via: CDex 1.40PlusFr
# Normalized: r0:TDELIM( - )
#
DISCID=e90b2810
DTITLE=Artistes variés - Total Country CD 2
DYEAR=1900
DGENRE=Country
TTITLE0=Jim Reeves - Till the end of the world
TTITLE1=Ferlin Husky - San Antonio rase
TTITLE2=Federation - Meet me on the corner
TTITLE3=Kenny Rogers - Ruby don't take your love to town
TTITLE4=Ricky Nelson - Poor little fool
TTITLE5=Freddy Fender - Wild side of life
TTITLE6=Kitty Wells - Making believe
TTITLE7=Jim Reeves - Highway to nowhere
TTITLE8=Tina Turner - Freedom to stay
TTITLE9=Kenny Rogers - Sunshine
TTITLE10=Tina Turner - Loving him was easier
TTITLE11=Federation - Don't step out of line
TTITLE12=Kenny Rogers - The King of Oak Street
TTITLE13=Frankie Laine - High Noon
TTITLE14=Patsy Cline - Honky Tonk
TTITLE15=Gerald W Group - Money
EXTD=ID3G: 2
EXTT0=
EXTT1=
EXTT2=
EXTT3=
EXTT4=
EXTT5=
EXTT6=
EXTT7=
EXTT8=
EXTT9=
EXTT10=
EXTT11=
EXTT12=
EXTT13=
EXTT14=
EXTT15=
PLAYORDER=
